<?xml version="1.0" encoding="UTF-8" standalone="no"?>
<!DOCTYPE svg PUBLIC "-//W3C//DTD SVG 1.1//EN"
 "http://www.w3.org/Graphics/SVG/1.1/DTD/svg11.dtd">
<!-- Generated by graphviz version 2.38.0 (20140413.2041)
 -->
<!-- Title: sample1 Pages: 1 -->
<svg width="953pt" height="105pt"
 viewBox="0.00 0.00 952.92 105.25" xmlns="http://www.w3.org/2000/svg" xmlns:xlink="http://www.w3.org/1999/xlink">
<g id="graph0" class="graph" transform="scale(1 1) rotate(0) translate(4 101.251)">
<title>sample1</title>
<polygon fill="white" stroke="none" points="-4,4 -4,-101.251 948.918,-101.251 948.918,4 -4,4"/>
<g id="clust1" class="cluster"><title>cluster0</title>
<polygon fill="none" stroke="black" points="341.415,-16.2514 341.415,-89.2514 513.345,-89.2514 513.345,-16.2514 341.415,-16.2514"/>
<text text-anchor="middle" x="427.38" y="-75.6514" font-family="Yu Gothic bold" font-size="12.00">プレゼンテーション</text>
</g>
<!-- start -->
<g id="node1" class="node"><title>start</title>
<polygon fill="none" stroke="black" points="38.2948,-60.2514 0.20413,-42.2514 38.2948,-24.2514 76.3854,-42.2514 38.2948,-60.2514"/>
<text text-anchor="middle" x="38.2948" y="-39.7514" font-family="Yu Gothic bold" font-size="10.00">はじめ</text>
</g>
<!-- flow1 -->
<g id="node3" class="node"><title>flow1</title>
<ellipse fill="none" stroke="black" cx="156.739" cy="-42.2514" rx="44.3" ry="18"/>
<text text-anchor="middle" x="156.739" y="-39.7514" font-family="Yu Gothic bold" font-size="10.00">はじめの挨拶</text>
</g>
<!-- start&#45;&gt;flow1 -->
<g id="edge1" class="edge"><title>start&#45;&gt;flow1</title>
<path fill="none" stroke="black" d="M76.4587,-42.2514C84.6871,-42.2514 93.564,-42.2514 102.297,-42.2514"/>
<polygon fill="black" stroke="black" points="102.434,-45.7515 112.434,-42.2514 102.434,-38.7515 102.434,-45.7515"/>
</g>
<!-- end -->
<g id="node2" class="node"><title>end</title>
<polygon fill="none" stroke="black" points="906.623,-60.2514 868.532,-42.2514 906.623,-24.2514 944.713,-42.2514 906.623,-60.2514"/>
<text text-anchor="middle" x="906.623" y="-39.7514" font-family="Yu Gothic bold" font-size="10.00">終わり</text>
</g>
<!-- flow2 -->
<g id="node4" class="node"><title>flow2</title>
<ellipse fill="none" stroke="black" cx="275.152" cy="-42.2514" rx="38.0276" ry="18"/>
<text text-anchor="middle" x="275.152" y="-39.7514" font-family="Yu Gothic bold" font-size="10.00">発表者登壇</text>
</g>
<!-- flow1&#45;&gt;flow2 -->
<g id="edge2" class="edge"><title>flow1&#45;&gt;flow2</title>
<path fill="none" stroke="black" d="M201.087,-42.2514C209.451,-42.2514 218.255,-42.2514 226.74,-42.2514"/>
<polygon fill="black" stroke="black" points="226.883,-45.7515 236.883,-42.2514 226.883,-38.7515 226.883,-45.7515"/>
</g>
<!-- flow3 -->
<g id="node5" class="node"><title>flow3</title>
<ellipse fill="none" stroke="black" cx="376.415" cy="-42.2514" rx="27" ry="18"/>
<text text-anchor="middle" x="376.415" y="-39.7514" font-family="Yu Gothic bold" font-size="10.00">発表</text>
</g>
<!-- flow2&#45;&gt;flow3 -->
<g id="edge3" class="edge"><title>flow2&#45;&gt;flow3</title>
<path fill="none" stroke="black" d="M313.679,-42.2514C322.017,-42.2514 330.841,-42.2514 339.128,-42.2514"/>
<polygon fill="black" stroke="black" points="339.262,-45.7515 349.262,-42.2514 339.262,-38.7515 339.262,-45.7515"/>
</g>
<!-- flow5 -->
<g id="node7" class="node"><title>flow5</title>
<ellipse fill="none" stroke="black" cx="579.609" cy="-42.2514" rx="38.0276" ry="18"/>
<text text-anchor="middle" x="579.609" y="-39.7514" font-family="Yu Gothic bold" font-size="10.00">発表者降壇</text>
</g>
<!-- flow2&#45;&gt;flow5 -->
<g id="edge9" class="edge"><title>flow2&#45;&gt;flow5</title>
<path fill="none" stroke="black" d="M308.998,-23.8226C319.085,-19.0884 330.43,-14.6554 341.415,-12.2514 416.062,4.0838 438.698,4.0838 513.345,-12.2514 527.842,-15.4237 542.963,-22.1291 554.996,-28.3975"/>
<polygon fill="black" stroke="black" points="307.171,-20.8216 299.765,-28.3975 310.279,-27.094 307.171,-20.8216"/>
</g>
<!-- flow4 -->
<g id="node6" class="node"><title>flow4</title>
<ellipse fill="none" stroke="black" cx="472.38" cy="-42.2514" rx="32.9303" ry="18"/>
<text text-anchor="middle" x="472.38" y="-39.7514" font-family="Yu Gothic bold" font-size="10.00">質疑応答</text>
</g>
<!-- flow3&#45;&gt;flow4 -->
<g id="edge4" class="edge"><title>flow3&#45;&gt;flow4</title>
<path fill="none" stroke="black" d="M403.59,-42.2514C411.552,-42.2514 420.513,-42.2514 429.249,-42.2514"/>
<polygon fill="black" stroke="black" points="429.326,-45.7515 439.326,-42.2514 429.326,-38.7515 429.326,-45.7515"/>
</g>
<!-- flow4&#45;&gt;flow5 -->
<g id="edge5" class="edge"><title>flow4&#45;&gt;flow5</title>
<path fill="none" stroke="black" d="M505.524,-42.2514C513.604,-42.2514 522.447,-42.2514 531.105,-42.2514"/>
<polygon fill="black" stroke="black" points="531.125,-45.7515 541.125,-42.2514 531.125,-38.7515 531.125,-45.7515"/>
</g>
<!-- flow6 -->
<g id="node8" class="node"><title>flow6</title>
<ellipse fill="none" stroke="black" cx="698.021" cy="-42.2514" rx="44.3" ry="18"/>
<text text-anchor="middle" x="698.021" y="-39.7514" font-family="Yu Gothic bold" font-size="10.00">終わりの挨拶</text>
</g>
<!-- flow5&#45;&gt;flow6 -->
<g id="edge6" class="edge"><title>flow5&#45;&gt;flow6</title>
<path fill="none" stroke="black" d="M618.083,-42.2514C626.116,-42.2514 634.755,-42.2514 643.267,-42.2514"/>
<polygon fill="black" stroke="black" points="643.536,-45.7515 653.536,-42.2514 643.536,-38.7515 643.536,-45.7515"/>
</g>
<!-- flow7 -->
<g id="node9" class="node"><title>flow7</title>
<ellipse fill="none" stroke="black" cx="805.25" cy="-42.2514" rx="27.1572" ry="18"/>
<text text-anchor="middle" x="805.25" y="-39.7514" font-family="Yu Gothic bold" font-size="10.00">懇親会</text>
</g>
<!-- flow6&#45;&gt;flow7 -->
<g id="edge7" class="edge"><title>flow6&#45;&gt;flow7</title>
<path fill="none" stroke="black" d="M742.429,-42.2514C750.948,-42.2514 759.799,-42.2514 768.051,-42.2514"/>
<polygon fill="black" stroke="black" points="768.113,-45.7515 778.113,-42.2514 768.113,-38.7515 768.113,-45.7515"/>
</g>
<!-- flow7&#45;&gt;end -->
<g id="edge8" class="edge"><title>flow7&#45;&gt;end</title>
<path fill="none" stroke="black" d="M832.359,-42.2514C840.381,-42.2514 849.47,-42.2514 858.45,-42.2514"/>
<polygon fill="black" stroke="black" points="858.479,-45.7515 868.479,-42.2514 858.479,-38.7515 858.479,-45.7515"/>
</g>
</g>
</svg>
