<?xml version="1.0" encoding="UTF-8" standalone="no"?>
<!DOCTYPE svg PUBLIC "-//W3C//DTD SVG 1.1//EN"
 "http://www.w3.org/Graphics/SVG/1.1/DTD/svg11.dtd">
<!-- Generated by graphviz version 2.38.0 (20140413.2041)
 -->
<!-- Title: sample1 Pages: 1 -->
<svg width="447pt" height="151pt"
 viewBox="0.00 0.00 446.53 151.00" xmlns="http://www.w3.org/2000/svg" xmlns:xlink="http://www.w3.org/1999/xlink">
<g id="graph0" class="graph" transform="scale(1 1) rotate(0) translate(4 147)">
<title>sample1</title>
<polygon fill="white" stroke="none" points="-4,4 -4,-147 442.529,-147 442.529,4 -4,4"/>
<g id="clust1" class="cluster"><title>cluster0</title>
<polygon fill="none" stroke="black" points="87.9396,-8 87.9396,-135 333.94,-135 333.94,-8 87.9396,-8"/>
<text text-anchor="middle" x="210.94" y="-121.4" font-family="Yu Gothic bold" font-size="12.00">視聴画面</text>
</g>
<!-- start -->
<g id="node1" class="node"><title>start</title>
<polygon fill="none" stroke="black" points="29.9698,-106 0.0301453,-88 29.9698,-70 59.9095,-88 29.9698,-106"/>
<text text-anchor="middle" x="29.9698" y="-85.5" font-family="Yu Gothic bold" font-size="10.00">開く</text>
</g>
<!-- watch0 -->
<g id="node3" class="node"><title>watch0</title>
<ellipse fill="none" stroke="black" cx="150.44" cy="-88" rx="32.9303" ry="18"/>
<text text-anchor="middle" x="150.44" y="-85.5" font-family="Yu Gothic bold" font-size="10.00">視聴待機</text>
</g>
<!-- start&#45;&gt;watch0 -->
<g id="edge3" class="edge"><title>start&#45;&gt;watch0</title>
<path fill="none" stroke="black" d="M59.9508,-88C74.2238,-88 91.7001,-88 107.409,-88"/>
<polygon fill="black" stroke="black" points="107.425,-91.5001 117.425,-88 107.425,-84.5001 107.425,-91.5001"/>
</g>
<!-- end -->
<g id="node2" class="node"><title>end</title>
<polygon fill="none" stroke="black" points="400.234,-106 362.144,-88 400.234,-70 438.325,-88 400.234,-106"/>
<text text-anchor="middle" x="400.234" y="-85.5" font-family="Yu Gothic bold" font-size="10.00">閉じる</text>
</g>
<!-- watch2 -->
<g id="node5" class="node"><title>watch2</title>
<ellipse fill="none" stroke="black" cx="283.44" cy="-88" rx="27" ry="18"/>
<text text-anchor="middle" x="283.44" y="-85.5" font-family="Yu Gothic bold" font-size="10.00">視聴</text>
</g>
<!-- watch0&#45;&gt;watch2 -->
<g id="edge4" class="edge"><title>watch0&#45;&gt;watch2</title>
<path fill="none" stroke="black" d="M183.486,-88C202.491,-88 226.633,-88 246.313,-88"/>
<polygon fill="black" stroke="black" points="246.436,-91.5001 256.436,-88 246.436,-84.5001 246.436,-91.5001"/>
</g>
<!-- watch1 -->
<g id="node4" class="node"><title>watch1</title>
<text text-anchor="middle" x="150.44" y="-37" font-family="Yu Gothic bold" font-size="10.00">OAuth認証(Twitter)</text>
<text text-anchor="middle" x="150.44" y="-26" font-family="Yu Gothic bold" font-size="10.00">視聴告知</text>
</g>
<!-- watch1&#45;&gt;watch0 -->
<g id="edge1" class="edge"><title>watch1&#45;&gt;watch0</title>
<path fill="none" stroke="black" stroke-dasharray="1,5" d="M150.44,-52.1406C150.44,-58.0238 150.44,-63.907 150.44,-69.7902"/>
</g>
<!-- watch2&#45;&gt;end -->
<g id="edge5" class="edge"><title>watch2&#45;&gt;end</title>
<path fill="none" stroke="black" d="M310.488,-88C322.731,-88 337.72,-88 351.868,-88"/>
<polygon fill="black" stroke="black" points="351.971,-91.5001 361.971,-88 351.971,-84.5001 351.971,-91.5001"/>
</g>
<!-- watch3 -->
<g id="node6" class="node"><title>watch3</title>
<text text-anchor="middle" x="283.44" y="-37" font-family="Yu Gothic bold" font-size="10.00">コメント</text>
<text text-anchor="middle" x="283.44" y="-26" font-family="Yu Gothic bold" font-size="10.00">アンケート回答</text>
</g>
<!-- watch3&#45;&gt;watch2 -->
<g id="edge2" class="edge"><title>watch3&#45;&gt;watch2</title>
<path fill="none" stroke="black" stroke-dasharray="1,5" d="M283.44,-52.1406C283.44,-58.0238 283.44,-63.907 283.44,-69.7902"/>
</g>
</g>
</svg>
