<?xml version="1.0" encoding="UTF-8" standalone="no"?>
<!DOCTYPE svg PUBLIC "-//W3C//DTD SVG 1.1//EN"
 "http://www.w3.org/Graphics/SVG/1.1/DTD/svg11.dtd">
<!-- Generated by graphviz version 2.38.0 (20140413.2041)
 -->
<!-- Title: sample1 Pages: 1 -->
<svg width="443pt" height="278pt"
 viewBox="0.00 0.00 266.00 167.00" xmlns="http://www.w3.org/2000/svg" xmlns:xlink="http://www.w3.org/1999/xlink">
<g id="graph0" class="graph" transform="scale(1.66667 1.66667) rotate(0) translate(4 163)">
<title>sample1</title>
<polygon fill="white" stroke="none" points="-4,4 -4,-163 262,-163 262,4 -4,4"/>
<g id="clust1" class="cluster"><title>cluster0</title>
<polygon fill="none" stroke="black" points="8,-8 8,-151 150,-151 150,-8 8,-8"/>
<text text-anchor="middle" x="79" y="-139" font-family="Yu Gothic bold" font-size="10.00">会場</text>
</g>
<g id="clust2" class="cluster"><title>cluster1</title>
<polygon fill="none" stroke="black" points="158,-80 158,-151 250,-151 250,-80 158,-80"/>
<text text-anchor="middle" x="204" y="-139" font-family="Yu Gothic bold" font-size="10.00">オンライン</text>
</g>
<!-- master -->
<g id="node1" class="node"><title>master</title>
<ellipse fill="none" stroke="black" cx="115" cy="-106" rx="27" ry="18"/>
<text text-anchor="middle" x="115" y="-103.5" font-family="Yu Gothic bold" font-size="10.00">司会</text>
</g>
<!-- presenter -->
<g id="node2" class="node"><title>presenter</title>
<ellipse fill="none" stroke="black" cx="43" cy="-106" rx="27.1572" ry="18"/>
<text text-anchor="middle" x="43" y="-103.5" font-family="Yu Gothic bold" font-size="10.00">発表者</text>
</g>
<!-- audience1 -->
<g id="node3" class="node"><title>audience1</title>
<ellipse fill="none" stroke="black" cx="43" cy="-34" rx="27" ry="18"/>
<text text-anchor="middle" x="43" y="-31.5" font-family="Yu Gothic bold" font-size="10.00">聴衆</text>
</g>
<!-- presenter&#45;&gt;audience1 -->
<g id="edge1" class="edge"><title>presenter&#45;&gt;audience1</title>
<path fill="none" stroke="black" d="M43,-77.6651C43,-72.6867 43,-67.4906 43,-62.5072"/>
<polygon fill="black" stroke="black" points="39.5001,-77.6966 43,-87.6966 46.5001,-77.6967 39.5001,-77.6966"/>
<polygon fill="black" stroke="black" points="46.5001,-62.1043 43,-52.1043 39.5001,-62.1044 46.5001,-62.1043"/>
</g>
<!-- audience2 -->
<g id="node4" class="node"><title>audience2</title>
<ellipse fill="none" stroke="black" cx="115" cy="-34" rx="27" ry="18"/>
<text text-anchor="middle" x="115" y="-31.5" font-family="Yu Gothic bold" font-size="10.00">聴衆</text>
</g>
<!-- presenter&#45;&gt;audience2 -->
<g id="edge2" class="edge"><title>presenter&#45;&gt;audience2</title>
<path fill="none" stroke="black" d="M65.3414,-83.2792C74.0863,-74.7772 84.0937,-65.0478 92.8227,-56.5613"/>
<polygon fill="black" stroke="black" points="62.6486,-81.0156 57.9184,-90.496 67.5282,-86.0346 62.6486,-81.0156"/>
<polygon fill="black" stroke="black" points="95.3705,-58.9658 100.101,-49.4855 90.4909,-53.9468 95.3705,-58.9658"/>
</g>
<!-- audience3 -->
<g id="node5" class="node"><title>audience3</title>
<ellipse fill="none" stroke="black" cx="204" cy="-106" rx="38.0276" ry="18"/>
<text text-anchor="middle" x="204" y="-103.5" font-family="Yu Gothic bold" font-size="10.00">遠隔の聴衆</text>
</g>
<!-- audience3&#45;&gt;audience2 -->
<g id="edge3" class="edge"><title>audience3&#45;&gt;audience2</title>
<path fill="none" stroke="black" d="M176.871,-83.663C165.034,-74.3522 151.25,-63.5113 139.701,-54.428"/>
<polygon fill="black" stroke="black" points="175.101,-86.7237 185.125,-90.1548 179.429,-81.2216 175.101,-86.7237"/>
<polygon fill="black" stroke="black" points="141.771,-51.6027 131.747,-48.1716 137.443,-57.1048 141.771,-51.6027"/>
</g>
</g>
</svg>
