<?xml version="1.0" encoding="UTF-8" standalone="no"?>
<!DOCTYPE svg PUBLIC "-//W3C//DTD SVG 1.1//EN"
 "http://www.w3.org/Graphics/SVG/1.1/DTD/svg11.dtd">
<!-- Generated by graphviz version 2.38.0 (20140413.2041)
 -->
<!-- Title: sample1 Pages: 1 -->
<svg width="676pt" height="167pt"
 viewBox="0.00 0.00 675.85 167.00" xmlns="http://www.w3.org/2000/svg" xmlns:xlink="http://www.w3.org/1999/xlink">
<g id="graph0" class="graph" transform="scale(1 1) rotate(0) translate(4 163)">
<title>sample1</title>
<polygon fill="white" stroke="none" points="-4,4 -4,-163 671.847,-163 671.847,4 -4,4"/>
<g id="clust1" class="cluster"><title>cluster0</title>
<polygon fill="none" stroke="black" points="87.9396,-24 87.9396,-151 202.835,-151 202.835,-24 87.9396,-24"/>
<text text-anchor="middle" x="145.387" y="-137.4" font-family="Yu Gothic bold" font-size="12.00">認証画面</text>
</g>
<g id="clust3" class="cluster"><title>cluster1</title>
<polygon fill="none" stroke="black" points="222.835,-24 222.835,-151 313.835,-151 313.835,-24 222.835,-24"/>
<text text-anchor="middle" x="268.335" y="-137.4" font-family="Yu Gothic bold" font-size="12.00">準備画面</text>
</g>
<g id="clust7" class="cluster"><title>cluster3</title>
<polygon fill="none" stroke="black" points="463.835,-24 463.835,-151 579.908,-151 579.908,-24 463.835,-24"/>
<text text-anchor="middle" x="521.871" y="-137.4" font-family="Yu Gothic bold" font-size="12.00">配信後画面</text>
</g>
<g id="clust5" class="cluster"><title>cluster2</title>
<polygon fill="none" stroke="black" points="333.835,-8 333.835,-151 443.835,-151 443.835,-8 333.835,-8"/>
<text text-anchor="middle" x="388.835" y="-137.4" font-family="Yu Gothic bold" font-size="12.00">配信画面</text>
</g>
<!-- start -->
<g id="node1" class="node"><title>start</title>
<polygon fill="none" stroke="black" points="29.9698,-122 0.0301453,-104 29.9698,-86 59.9095,-104 29.9698,-122"/>
<text text-anchor="middle" x="29.9698" y="-101.5" font-family="Yu Gothic bold" font-size="10.00">起動</text>
</g>
<!-- login0 -->
<g id="node3" class="node"><title>login0</title>
<ellipse fill="none" stroke="black" cx="145.387" cy="-104" rx="49.3954" ry="18"/>
<text text-anchor="middle" x="145.387" y="-101.5" font-family="Yu Gothic bold" font-size="10.00">ログイン先選択</text>
</g>
<!-- start&#45;&gt;login0 -->
<g id="edge5" class="edge"><title>start&#45;&gt;login0</title>
<path fill="none" stroke="black" d="M60.1777,-104C68.0938,-104 76.9532,-104 85.8724,-104"/>
<polygon fill="black" stroke="black" points="85.9206,-107.5 95.9206,-104 85.9205,-100.5 85.9206,-107.5"/>
</g>
<!-- end -->
<g id="node2" class="node"><title>end</title>
<polygon fill="none" stroke="black" points="637.878,-122 607.938,-104 637.878,-86 667.817,-104 637.878,-122"/>
<text text-anchor="middle" x="637.878" y="-101.5" font-family="Yu Gothic bold" font-size="10.00">終了</text>
</g>
<!-- setup0 -->
<g id="node5" class="node"><title>setup0</title>
<ellipse fill="none" stroke="black" cx="268.335" cy="-104" rx="32.9303" ry="18"/>
<text text-anchor="middle" x="268.335" y="-101.5" font-family="Yu Gothic bold" font-size="10.00">発表設定</text>
</g>
<!-- login0&#45;&gt;setup0 -->
<g id="edge6" class="edge"><title>login0&#45;&gt;setup0</title>
<path fill="none" stroke="black" d="M194.884,-104C204.827,-104 215.219,-104 224.927,-104"/>
<polygon fill="black" stroke="black" points="225.139,-107.5 235.139,-104 225.139,-100.5 225.139,-107.5"/>
</g>
<!-- login1 -->
<g id="node4" class="node"><title>login1</title>
<text text-anchor="middle" x="145.387" y="-53" font-family="Yu Gothic bold" font-size="10.00">PINコード入力</text>
<text text-anchor="middle" x="145.387" y="-42" font-family="Yu Gothic bold" font-size="10.00">認証待機</text>
</g>
<!-- login1&#45;&gt;login0 -->
<g id="edge1" class="edge"><title>login1&#45;&gt;login0</title>
<path fill="none" stroke="black" stroke-dasharray="1,5" d="M145.387,-68.1406C145.387,-74.0238 145.387,-79.907 145.387,-85.7902"/>
</g>
<!-- cast0 -->
<g id="node7" class="node"><title>cast0</title>
<ellipse fill="none" stroke="black" cx="388.835" cy="-104" rx="27" ry="18"/>
<text text-anchor="middle" x="388.835" y="-101.5" font-family="Yu Gothic bold" font-size="10.00">配信</text>
</g>
<!-- setup0&#45;&gt;cast0 -->
<g id="edge7" class="edge"><title>setup0&#45;&gt;cast0</title>
<path fill="none" stroke="black" d="M301.403,-104C316.922,-104 335.616,-104 351.644,-104"/>
<polygon fill="black" stroke="black" points="351.731,-107.5 361.731,-104 351.731,-100.5 351.731,-107.5"/>
</g>
<!-- setup1 -->
<g id="node6" class="node"><title>setup1</title>
<text text-anchor="middle" x="268.335" y="-53" font-family="Yu Gothic bold" font-size="10.00">スライド選択</text>
<text text-anchor="middle" x="268.335" y="-42" font-family="Yu Gothic bold" font-size="10.00">配信告知</text>
</g>
<!-- setup1&#45;&gt;setup0 -->
<g id="edge2" class="edge"><title>setup1&#45;&gt;setup0</title>
<path fill="none" stroke="black" stroke-dasharray="1,5" d="M268.335,-68.1406C268.335,-74.0238 268.335,-79.907 268.335,-85.7902"/>
</g>
<!-- result0 -->
<g id="node9" class="node"><title>result0</title>
<ellipse fill="none" stroke="black" cx="521.871" cy="-104" rx="50.0727" ry="18"/>
<text text-anchor="middle" x="521.871" y="-101.5" font-family="Yu Gothic bold" font-size="10.00">記録表示・保存</text>
</g>
<!-- cast0&#45;&gt;result0 -->
<g id="edge8" class="edge"><title>cast0&#45;&gt;result0</title>
<path fill="none" stroke="black" d="M416.037,-104C429.087,-104 445.439,-104 461.32,-104"/>
<polygon fill="black" stroke="black" points="461.648,-107.5 471.648,-104 461.648,-100.5 461.648,-107.5"/>
</g>
<!-- cast1 -->
<g id="node8" class="node"><title>cast1</title>
<text text-anchor="middle" x="388.835" y="-56" font-family="Yu Gothic bold" font-size="10.00">ポインター操作</text>
<text text-anchor="middle" x="388.835" y="-45" font-family="Yu Gothic bold" font-size="10.00">デスクトップ録画</text>
<text text-anchor="middle" x="388.835" y="-34" font-family="Yu Gothic bold" font-size="10.00">アンケート作成</text>
<text text-anchor="middle" x="388.835" y="-23" font-family="Yu Gothic bold" font-size="10.00">アンケート結果</text>
</g>
<!-- cast1&#45;&gt;cast0 -->
<g id="edge3" class="edge"><title>cast1&#45;&gt;cast0</title>
<path fill="none" stroke="black" stroke-dasharray="1,5" d="M388.835,-68.1563C388.835,-74.0369 388.835,-79.9175 388.835,-85.7981"/>
</g>
<!-- result0&#45;&gt;end -->
<g id="edge9" class="edge"><title>result0&#45;&gt;end</title>
<path fill="none" stroke="black" d="M572.213,-104C580.76,-104 589.542,-104 597.769,-104"/>
<polygon fill="black" stroke="black" points="597.836,-107.5 607.836,-104 597.836,-100.5 597.836,-107.5"/>
</g>
<!-- result1 -->
<g id="node10" class="node"><title>result1</title>
<text text-anchor="middle" x="521.871" y="-47.5" font-family="Yu Gothic bold" font-size="10.00">保存先選択</text>
</g>
<!-- result1&#45;&gt;result0 -->
<g id="edge4" class="edge"><title>result1&#45;&gt;result0</title>
<path fill="none" stroke="black" stroke-dasharray="1,5" d="M521.871,-68.1406C521.871,-74.0238 521.871,-79.907 521.871,-85.7902"/>
</g>
</g>
</svg>
