<?xml version="1.0" encoding="UTF-8" standalone="no"?>
<!DOCTYPE svg PUBLIC "-//W3C//DTD SVG 1.1//EN"
 "http://www.w3.org/Graphics/SVG/1.1/DTD/svg11.dtd">
<!-- Generated by graphviz version 2.38.0 (20140413.2041)
 -->
<!-- Title: sample1 Pages: 1 -->
<svg width="397pt" height="278pt"
 viewBox="0.00 0.00 238.00 167.00" xmlns="http://www.w3.org/2000/svg" xmlns:xlink="http://www.w3.org/1999/xlink">
<g id="graph0" class="graph" transform="scale(1.66667 1.66667) rotate(0) translate(4 163)">
<title>sample1</title>
<polygon fill="white" stroke="none" points="-4,4 -4,-163 234,-163 234,4 -4,4"/>
<g id="clust1" class="cluster"><title>cluster0</title>
<polygon fill="none" stroke="black" points="8,-8 8,-151 222,-151 222,-8 8,-8"/>
<text text-anchor="middle" x="115" y="-139" font-family="Yu Gothic bold" font-size="10.00">会場</text>
</g>
<!-- master -->
<g id="node1" class="node"><title>master</title>
<ellipse fill="none" stroke="black" cx="187" cy="-106" rx="27" ry="18"/>
<text text-anchor="middle" x="187" y="-103.5" font-family="Yu Gothic bold" font-size="10.00">司会</text>
</g>
<!-- presenter -->
<g id="node2" class="node"><title>presenter</title>
<ellipse fill="none" stroke="black" cx="115" cy="-106" rx="27.1572" ry="18"/>
<text text-anchor="middle" x="115" y="-103.5" font-family="Yu Gothic bold" font-size="10.00">発表者</text>
</g>
<!-- audience1 -->
<g id="node3" class="node"><title>audience1</title>
<ellipse fill="none" stroke="black" cx="43" cy="-34" rx="27" ry="18"/>
<text text-anchor="middle" x="43" y="-31.5" font-family="Yu Gothic bold" font-size="10.00">聴衆</text>
</g>
<!-- presenter&#45;&gt;audience1 -->
<g id="edge1" class="edge"><title>presenter&#45;&gt;audience1</title>
<path fill="none" stroke="black" d="M92.6586,-83.2792C83.9137,-74.7772 73.9063,-65.0478 65.1773,-56.5613"/>
<polygon fill="black" stroke="black" points="90.4718,-86.0346 100.082,-90.496 95.3514,-81.0156 90.4718,-86.0346"/>
<polygon fill="black" stroke="black" points="67.5091,-53.9468 57.8993,-49.4855 62.6295,-58.9658 67.5091,-53.9468"/>
</g>
<!-- audience2 -->
<g id="node4" class="node"><title>audience2</title>
<ellipse fill="none" stroke="black" cx="115" cy="-34" rx="27" ry="18"/>
<text text-anchor="middle" x="115" y="-31.5" font-family="Yu Gothic bold" font-size="10.00">聴衆</text>
</g>
<!-- presenter&#45;&gt;audience2 -->
<g id="edge2" class="edge"><title>presenter&#45;&gt;audience2</title>
<path fill="none" stroke="black" d="M115,-77.6651C115,-72.6867 115,-67.4906 115,-62.5072"/>
<polygon fill="black" stroke="black" points="111.5,-77.6966 115,-87.6966 118.5,-77.6967 111.5,-77.6966"/>
<polygon fill="black" stroke="black" points="118.5,-62.1043 115,-52.1043 111.5,-62.1044 118.5,-62.1043"/>
</g>
<!-- audience3 -->
<g id="node5" class="node"><title>audience3</title>
<ellipse fill="none" stroke="black" cx="187" cy="-34" rx="27" ry="18"/>
<text text-anchor="middle" x="187" y="-31.5" font-family="Yu Gothic bold" font-size="10.00">聴衆</text>
</g>
<!-- presenter&#45;&gt;audience3 -->
<g id="edge3" class="edge"><title>presenter&#45;&gt;audience3</title>
<path fill="none" stroke="black" d="M137.341,-83.2792C146.086,-74.7772 156.094,-65.0478 164.823,-56.5613"/>
<polygon fill="black" stroke="black" points="134.649,-81.0156 129.918,-90.496 139.528,-86.0346 134.649,-81.0156"/>
<polygon fill="black" stroke="black" points="167.37,-58.9658 172.101,-49.4855 162.491,-53.9468 167.37,-58.9658"/>
</g>
</g>
</svg>
