<?xml version="1.0" encoding="UTF-8" standalone="no"?>
<!DOCTYPE svg PUBLIC "-//W3C//DTD SVG 1.1//EN"
 "http://www.w3.org/Graphics/SVG/1.1/DTD/svg11.dtd">
<!-- Generated by graphviz version 2.38.0 (20140413.2041)
 -->
<!-- Title: sample1 Pages: 1 -->
<svg width="1069pt" height="167pt"
 viewBox="0.00 0.00 1068.99 167.00" xmlns="http://www.w3.org/2000/svg" xmlns:xlink="http://www.w3.org/1999/xlink">
<g id="graph0" class="graph" transform="scale(1 1) rotate(0) translate(4 163)">
<title>sample1</title>
<polygon fill="white" stroke="none" points="-4,4 -4,-163 1064.99,-163 1064.99,4 -4,4"/>
<g id="clust3" class="cluster"><title>cluster1</title>
<polygon fill="none" stroke="black" points="494.98,-18 494.98,-151 585.98,-151 585.98,-18 494.98,-18"/>
<text text-anchor="middle" x="540.48" y="-137.4" font-family="Yu Gothic bold" font-size="12.00">準備画面</text>
</g>
<g id="clust1" class="cluster"><title>cluster0</title>
<polygon fill="none" stroke="black" points="87.9396,-18 87.9396,-151 474.98,-151 474.98,-18 87.9396,-18"/>
<text text-anchor="middle" x="281.46" y="-137.4" font-family="Yu Gothic bold" font-size="12.00">認証画面</text>
</g>
<g id="clust5" class="cluster"><title>cluster2</title>
<polygon fill="none" stroke="black" points="605.98,-8 605.98,-151 836.98,-151 836.98,-8 605.98,-8"/>
<text text-anchor="middle" x="721.48" y="-137.4" font-family="Yu Gothic bold" font-size="12.00">配信画面</text>
</g>
<g id="clust8" class="cluster"><title>cluster3</title>
<polygon fill="none" stroke="black" points="856.98,-24 856.98,-151 973.053,-151 973.053,-24 856.98,-24"/>
<text text-anchor="middle" x="915.017" y="-137.4" font-family="Yu Gothic bold" font-size="12.00">配信後画面</text>
</g>
<!-- start -->
<g id="node1" class="node"><title>start</title>
<polygon fill="none" stroke="black" points="29.9698,-122 0.0301453,-104 29.9698,-86 59.9095,-104 29.9698,-122"/>
<text text-anchor="middle" x="29.9698" y="-101.5" font-family="Yu Gothic bold" font-size="10.00">起動</text>
</g>
<!-- login0 -->
<g id="node3" class="node"><title>login0</title>
<ellipse fill="none" stroke="black" cx="145.387" cy="-104" rx="49.3954" ry="18"/>
<text text-anchor="middle" x="145.387" y="-101.5" font-family="Yu Gothic bold" font-size="10.00">ログイン先選択</text>
</g>
<!-- start&#45;&gt;login0 -->
<g id="edge6" class="edge"><title>start&#45;&gt;login0</title>
<path fill="none" stroke="black" d="M60.1777,-104C68.0938,-104 76.9532,-104 85.8724,-104"/>
<polygon fill="black" stroke="black" points="85.9206,-107.5 95.9206,-104 85.9205,-100.5 85.9206,-107.5"/>
</g>
<!-- end -->
<g id="node2" class="node"><title>end</title>
<polygon fill="none" stroke="black" points="1031.02,-122 1001.08,-104 1031.02,-86 1060.96,-104 1031.02,-122"/>
<text text-anchor="middle" x="1031.02" y="-101.5" font-family="Yu Gothic bold" font-size="10.00">終了</text>
</g>
<!-- login1 -->
<g id="node4" class="node"><title>login1</title>
<ellipse fill="none" stroke="black" cx="269.687" cy="-104" rx="38.7041" ry="18"/>
<text text-anchor="middle" x="269.687" y="-101.5" font-family="Yu Gothic bold" font-size="10.00">OAuth認証</text>
</g>
<!-- login0&#45;&gt;login1 -->
<g id="edge7" class="edge"><title>login0&#45;&gt;login1</title>
<path fill="none" stroke="black" d="M195.075,-104C203.504,-104 212.264,-104 220.675,-104"/>
<polygon fill="black" stroke="black" points="220.717,-107.5 230.717,-104 220.717,-100.5 220.717,-107.5"/>
</g>
<!-- login3 -->
<g id="node6" class="node"><title>login3</title>
<ellipse fill="none" stroke="black" cx="405.759" cy="-104" rx="61.4427" ry="18"/>
<text text-anchor="middle" x="405.759" y="-101.5" font-family="Yu Gothic bold" font-size="10.00">アカウント情報受取</text>
</g>
<!-- login1&#45;&gt;login3 -->
<g id="edge8" class="edge"><title>login1&#45;&gt;login3</title>
<path fill="none" stroke="black" d="M308.748,-104C316.848,-104 325.646,-104 334.52,-104"/>
<polygon fill="black" stroke="black" points="334.537,-107.5 344.537,-104 334.537,-100.5 334.537,-107.5"/>
</g>
<!-- login2 -->
<g id="node5" class="node"><title>login2</title>
<text text-anchor="middle" x="269.687" y="-55.5" font-family="Yu Gothic bold" font-size="10.00">Twitter</text>
<text text-anchor="middle" x="269.687" y="-44.5" font-family="Yu Gothic bold" font-size="10.00">Github</text>
<text text-anchor="middle" x="269.687" y="-33.5" font-family="Yu Gothic bold" font-size="10.00">Google</text>
</g>
<!-- login2&#45;&gt;login1 -->
<g id="edge1" class="edge"><title>login2&#45;&gt;login1</title>
<path fill="none" stroke="black" stroke-dasharray="1,5" d="M269.687,-67.9297C269.687,-73.9414 269.687,-79.9531 269.687,-85.9648"/>
</g>
<!-- setup0 -->
<g id="node7" class="node"><title>setup0</title>
<ellipse fill="none" stroke="black" cx="540.48" cy="-104" rx="32.9303" ry="18"/>
<text text-anchor="middle" x="540.48" y="-101.5" font-family="Yu Gothic bold" font-size="10.00">発表設定</text>
</g>
<!-- login3&#45;&gt;setup0 -->
<g id="edge9" class="edge"><title>login3&#45;&gt;setup0</title>
<path fill="none" stroke="black" d="M467.294,-104C477.436,-104 487.761,-104 497.311,-104"/>
<polygon fill="black" stroke="black" points="497.325,-107.5 507.325,-104 497.325,-100.5 497.325,-107.5"/>
</g>
<!-- cast0 -->
<g id="node9" class="node"><title>cast0</title>
<ellipse fill="none" stroke="black" cx="656.48" cy="-104" rx="32.9303" ry="18"/>
<text text-anchor="middle" x="656.48" y="-101.5" font-family="Yu Gothic bold" font-size="10.00">配信待機</text>
</g>
<!-- setup0&#45;&gt;cast0 -->
<g id="edge10" class="edge"><title>setup0&#45;&gt;cast0</title>
<path fill="none" stroke="black" d="M573.539,-104C585.803,-104 599.985,-104 613.068,-104"/>
<polygon fill="black" stroke="black" points="613.267,-107.5 623.267,-104 613.267,-100.5 613.267,-107.5"/>
</g>
<!-- setup1 -->
<g id="node8" class="node"><title>setup1</title>
<text text-anchor="middle" x="540.48" y="-55.5" font-family="Yu Gothic bold" font-size="10.00">スライド選択</text>
<text text-anchor="middle" x="540.48" y="-44.5" font-family="Yu Gothic bold" font-size="10.00">発表情報入力</text>
<text text-anchor="middle" x="540.48" y="-33.5" font-family="Yu Gothic bold" font-size="10.00">録画設定</text>
</g>
<!-- setup1&#45;&gt;setup0 -->
<g id="edge2" class="edge"><title>setup1&#45;&gt;setup0</title>
<path fill="none" stroke="black" stroke-dasharray="1,5" d="M540.48,-67.9297C540.48,-73.9414 540.48,-79.9531 540.48,-85.9648"/>
</g>
<!-- cast2 -->
<g id="node11" class="node"><title>cast2</title>
<ellipse fill="none" stroke="black" cx="781.98" cy="-104" rx="27" ry="18"/>
<text text-anchor="middle" x="781.98" y="-101.5" font-family="Yu Gothic bold" font-size="10.00">配信</text>
</g>
<!-- cast0&#45;&gt;cast2 -->
<g id="edge11" class="edge"><title>cast0&#45;&gt;cast2</title>
<path fill="none" stroke="black" d="M689.606,-104C706.415,-104 727.062,-104 744.474,-104"/>
<polygon fill="black" stroke="black" points="744.834,-107.5 754.834,-104 744.834,-100.5 744.834,-107.5"/>
</g>
<!-- cast1 -->
<g id="node10" class="node"><title>cast1</title>
<text text-anchor="middle" x="656.48" y="-53" font-family="Yu Gothic bold" font-size="10.00">配信告知</text>
<text text-anchor="middle" x="656.48" y="-42" font-family="Yu Gothic bold" font-size="10.00">アンケート作成</text>
</g>
<!-- cast1&#45;&gt;cast0 -->
<g id="edge3" class="edge"><title>cast1&#45;&gt;cast0</title>
<path fill="none" stroke="black" stroke-dasharray="1,5" d="M656.48,-68.1406C656.48,-74.0238 656.48,-79.907 656.48,-85.7902"/>
</g>
<!-- result0 -->
<g id="node13" class="node"><title>result0</title>
<ellipse fill="none" stroke="black" cx="915.017" cy="-104" rx="50.0727" ry="18"/>
<text text-anchor="middle" x="915.017" y="-101.5" font-family="Yu Gothic bold" font-size="10.00">記録保存・投稿</text>
</g>
<!-- cast2&#45;&gt;result0 -->
<g id="edge12" class="edge"><title>cast2&#45;&gt;result0</title>
<path fill="none" stroke="black" d="M809.183,-104C822.232,-104 838.584,-104 854.465,-104"/>
<polygon fill="black" stroke="black" points="854.793,-107.5 864.793,-104 854.793,-100.5 854.793,-107.5"/>
</g>
<!-- cast3 -->
<g id="node12" class="node"><title>cast3</title>
<text text-anchor="middle" x="781.98" y="-56" font-family="Yu Gothic bold" font-size="10.00">スライド操作</text>
<text text-anchor="middle" x="781.98" y="-45" font-family="Yu Gothic bold" font-size="10.00">ポインター操作</text>
<text text-anchor="middle" x="781.98" y="-34" font-family="Yu Gothic bold" font-size="10.00">デスクトップ録画</text>
<text text-anchor="middle" x="781.98" y="-23" font-family="Yu Gothic bold" font-size="10.00">アンケート収集</text>
</g>
<!-- cast3&#45;&gt;cast2 -->
<g id="edge4" class="edge"><title>cast3&#45;&gt;cast2</title>
<path fill="none" stroke="black" stroke-dasharray="1,5" d="M781.98,-68.1563C781.98,-74.0369 781.98,-79.9175 781.98,-85.7981"/>
</g>
<!-- result0&#45;&gt;end -->
<g id="edge13" class="edge"><title>result0&#45;&gt;end</title>
<path fill="none" stroke="black" d="M965.358,-104C973.906,-104 982.687,-104 990.915,-104"/>
<polygon fill="black" stroke="black" points="990.981,-107.5 1000.98,-104 990.981,-100.5 990.981,-107.5"/>
</g>
<!-- result1 -->
<g id="node14" class="node"><title>result1</title>
<text text-anchor="middle" x="915.017" y="-53" font-family="Yu Gothic bold" font-size="10.00">Gistに投稿</text>
<text text-anchor="middle" x="915.017" y="-42" font-family="Yu Gothic bold" font-size="10.00">ローカルに保存</text>
</g>
<!-- result1&#45;&gt;result0 -->
<g id="edge5" class="edge"><title>result1&#45;&gt;result0</title>
<path fill="none" stroke="black" stroke-dasharray="1,5" d="M915.017,-68.1406C915.017,-74.0238 915.017,-79.907 915.017,-85.7902"/>
</g>
</g>
</svg>
